<svg width="24" height="25" viewBox="0 0 24 25" fill="none" xmlns="http://www.w3.org/2000/svg">
<path d="M12 16.4453C14.0711 16.4453 15.75 14.7664 15.75 12.6953C15.75 10.6242 14.0711 8.94531 12 8.94531C9.92893 8.94531 8.25 10.6242 8.25 12.6953C8.25 14.7664 9.92893 16.4453 12 16.4453Z" stroke="#E42F86" stroke-width="1.5" stroke-miterlimit="10"/>
<path d="M16.125 4.07031H7.875C5.38972 4.07031 3.375 6.08503 3.375 8.57031V16.8203C3.375 19.3056 5.38972 21.3203 7.875 21.3203H16.125C18.6103 21.3203 20.625 19.3056 20.625 16.8203V8.57031C20.625 6.08503 18.6103 4.07031 16.125 4.07031Z" stroke="#E42F86" stroke-width="1.5" stroke-linecap="round" stroke-linejoin="round"/>
<path d="M17.25 7.82031C17.25 8.02742 17.0821 8.19531 16.875 8.19531C16.6679 8.19531 16.5 8.02742 16.5 7.82031C16.5 7.61321 16.6679 7.44531 16.875 7.44531C17.0821 7.44531 17.25 7.61321 17.25 7.82031Z" stroke="#E42F86" stroke-width="1.5"/>
</svg>
