<svg width="17" height="17" viewBox="0 0 17 17" fill="none" xmlns="http://www.w3.org/2000/svg">
<path d="M7.64394 1.41785C8.03287 0.773676 8.96713 0.773675 9.35606 1.41785L11.4145 4.82713C11.554 5.05808 11.7808 5.22289 12.0435 5.28414L15.922 6.18831C16.6549 6.35915 16.9436 7.24768 16.4511 7.81664L13.8448 10.8279C13.6682 11.0319 13.5816 11.2985 13.6045 11.5673L13.9431 15.5354C14.0071 16.2852 13.2513 16.8343 12.558 16.5418L8.88876 14.9935C8.6402 14.8887 8.3598 14.8887 8.11124 14.9935L4.442 16.5418C3.74871 16.8343 2.99288 16.2852 3.05686 15.5354L3.39547 11.5673C3.41841 11.2985 3.33176 11.0319 3.1552 10.8279L0.548878 7.81664C0.0564222 7.24768 0.345122 6.35915 1.07795 6.18831L4.95647 5.28414C5.2192 5.22289 5.44605 5.05808 5.58549 4.82713L7.64394 1.41785Z" fill="white"/>
</svg>
