<svg width="24" height="25" viewBox="0 0 24 25" fill="none" xmlns="http://www.w3.org/2000/svg">
<path d="M22.5006 6.38257C21.6841 7.55149 20.6655 8.56521 19.4926 9.37597L19.4926 9.37596C19.4184 11.4263 18.8198 13.4235 17.7541 15.1768C16.6884 16.93 15.1911 18.3809 13.4052 19.3908C11.6192 20.4007 9.60419 20.936 7.55247 20.9455C5.50076 20.9551 3.48084 20.4386 1.68555 19.4453L1.68616 19.4442C4.03051 19.4118 6.31343 18.6899 8.25024 17.3686L8.25016 17.3687C6.17689 15.9556 4.59782 13.9291 3.73433 11.5733C2.87084 9.21757 2.76623 6.65064 3.43517 4.23242L3.43513 4.23245C4.39323 5.70794 5.66407 6.95469 7.15762 7.88438C8.65117 8.81407 10.3309 9.40396 12.0778 9.61224L12.0775 9.61229C11.8936 8.73536 12.0296 7.82155 12.461 7.03623C12.8924 6.25091 13.5907 5.64598 14.4295 5.3309C15.2683 5.01583 16.1922 5.01145 17.034 5.31853C17.8757 5.62562 18.5797 6.22389 19.0186 7.00507L19.0186 7.00549C20.2036 6.97013 21.3769 6.76023 22.5006 6.38257" stroke="#E42F86" stroke-width="1.5" stroke-linecap="round" stroke-linejoin="round"/>
</svg>
